<?xml version="1.0" standalone="no"?>
<!DOCTYPE svg PUBLIC "-//W3C//DTD SVG 20010904//EN"
 "http://www.w3.org/TR/2001/REC-SVG-20010904/DTD/svg10.dtd">
<svg version="1.0" xmlns="http://www.w3.org/2000/svg"
 width="160pt" height="43pt" viewBox="0 0 667.000000 179.000000"
 preserveAspectRatio="xMidYMid meet">
<metadata>
Created by potrace 1.16, written by Peter Selinger 2001-2019
</metadata>
<g transform="translate(0.000000,179.000000) scale(0.100000,-0.100000)"
fill="#7653FC" stroke="none">
<path d="M270 1435 c0 -3 54 -98 119 -211 l120 -205 -53 -112 c-30 -62 -83
-174 -120 -250 l-65 -137 161 2 160 3 99 240 c54 132 99 247 99 256 0 10 -51
106 -114 215 l-113 199 -147 3 c-80 1 -146 0 -146 -3z"/>
<path d="M880 1131 l0 -311 140 0 140 0 0 171 0 171 98 -4 c81 -3 104 -8 136
-27 73 -45 97 -155 54 -241 -30 -59 -92 -91 -188 -98 l-70 -5 0 -138 0 -139
78 0 c152 0 268 45 362 139 86 86 130 198 130 331 0 219 -119 375 -335 438
-35 10 -123 16 -297 19 l-248 5 0 -311z"/>
<path d="M2040 950 l0 -320 195 0 195 0 0 60 0 60 -120 0 -120 0 0 260 0 260
-75 0 -75 0 0 -320z"/>
<path d="M4960 1210 l0 -60 90 0 90 0 0 -260 0 -260 80 0 80 0 0 260 0 260 90
0 90 0 0 60 0 60 -260 0 -260 0 0 -60z"/>
<path d="M2619 1086 c-95 -34 -149 -113 -149 -220 0 -83 18 -135 65 -181 48
-48 98 -65 191 -65 117 0 201 54 233 149 17 52 13 160 -8 206 -23 51 -79 101
-128 114 -52 15 -160 13 -204 -3z m150 -111 c73 -37 66 -204 -10 -235 -66 -28
-129 21 -136 107 -9 104 66 170 146 128z"/>
<path d="M3239 1071 l-29 -29 0 24 c0 23 -2 24 -75 24 l-75 0 0 -230 0 -230
75 0 75 0 0 135 c0 152 9 184 59 205 22 9 38 9 61 2 l30 -11 0 70 0 69 -46 0
c-37 0 -51 -5 -75 -29z"/>
<path d="M3509 1072 c-80 -42 -113 -100 -117 -206 -3 -73 0 -87 25 -136 23
-46 37 -60 82 -82 47 -24 66 -28 135 -27 45 0 99 6 121 13 39 11 40 12 43 64
2 28 0 52 -3 52 -4 0 -32 -7 -62 -16 -69 -20 -136 -12 -169 21 -13 13 -24 31
-24 40 0 13 21 15 150 15 l150 0 0 43 c-1 109 -44 196 -113 228 -65 29 -152
26 -218 -9z"/>
<path d="M4140 1089 c-14 -6 -35 -20 -47 -31 l-23 -21 0 26 c0 27 0 27 -75 27
l-75 0 0 -230 0 -230 75 0 75 0 0 154 c0 132 2 157 18 174 26 32 64 37 93 14
23 -20 24 -24 27 -181 l3 -161 74 0 74 0 3 156 3 156 28 24 c35 30 52 30 82
-1 24 -24 25 -28 25 -180 l0 -155 75 0 75 0 0 180 c0 203 -8 236 -62 270 -27
17 -46 20 -100 18 -58 -3 -72 -8 -107 -36 -39 -31 -41 -32 -51 -12 -24 44
-125 65 -190 39z"/>
<path d="M5579 1086 c-95 -34 -149 -113 -149 -220 0 -83 18 -135 65 -181 48
-48 98 -65 191 -65 117 0 201 54 233 149 17 52 13 160 -8 206 -23 51 -79 101
-128 114 -52 15 -160 13 -204 -3z m150 -111 c73 -37 66 -204 -10 -235 -66 -28
-129 21 -136 107 -9 104 66 170 146 128z"/>
<path d="M6235 1088 c-11 -6 -30 -20 -42 -31 l-23 -20 0 26 0 27 -80 0 -80 0
0 -335 0 -335 80 0 80 0 0 120 0 120 33 -20 c38 -24 122 -27 170 -6 43 17 101
85 115 135 17 54 15 160 -3 212 -19 52 -49 87 -92 105 -39 17 -130 18 -158 2z
m82 -119 c22 -19 36 -84 29 -133 -9 -55 -40 -94 -82 -102 -26 -5 -38 0 -65 24
-32 28 -34 34 -34 94 0 70 19 112 58 128 25 11 74 5 94 -11z"/>
<path d="M880 655 l0 -135 140 0 140 0 0 135 0 135 -140 0 -140 0 0 -135z"/>
</g>
</svg>
